<?xml version="1.0" standalone="no"?><!DOCTYPE svg PUBLIC "-//W3C//DTD SVG 1.1//EN" "http://www.w3.org/Graphics/SVG/1.1/DTD/svg11.dtd"><svg t="1636073867267" class="icon" viewBox="0 0 1024 1024" version="1.1" xmlns="http://www.w3.org/2000/svg" p-id="6727" xmlns:xlink="http://www.w3.org/1999/xlink" width="200" height="200"><defs><style type="text/css"></style></defs><path d="M256 716.8h537.6a25.6 25.6 0 1 1 0 51.2h-563.2a25.6 25.6 0 0 1-25.6-25.6V343.04a25.6 25.6 0 0 1 51.2 0V716.8z m149.1968-119.552a25.6 25.6 0 0 1-36.7104-35.7376L496.64 429.824a25.6 25.6 0 0 1 33.2288-2.9696l69.888 49.8176 126.1568-208.3328a25.6 25.6 0 0 1 43.6224-0.3072l81.7152 130.816a25.6 25.6 0 0 1-43.4176 27.136l-59.648-95.5392-118.8864 196.352a25.6 25.6 0 0 1-36.7616 7.5776L518.0416 481.28l-112.8448 115.968z" p-id="6728"></path></svg>